<svg width="28" height="28" viewBox="0 0 28 28" fill="none" xmlns="http://www.w3.org/2000/svg">
<g clip-path="url(#clip0_5334_6458)">
<path d="M6.00034 13.001L4.00034 13.0003C3.44793 13.0002 3 13.4479 3 14.0003V23.999C3 24.5511 3.44751 24.9988 3.99966 24.999L5.99966 24.9997C6.55207 24.9998 7 24.5521 7 23.9997V14.001C7 13.4489 6.55249 13.0012 6.00034 13.001Z" stroke="#051B46" stroke-linejoin="round"/>
<path d="M15.0006 3.00189L13.0006 3.00063C12.4481 3.00028 12 3.4481 12 4.00063V23.9981C12 24.5501 12.4473 24.9978 12.9994 24.9981L14.9994 24.9994C15.5519 24.9997 16 24.5519 16 23.9994V4.00189C16 3.44986 15.5527 3.00224 15.0006 3.00189Z" stroke="#051B46" stroke-linejoin="round"/>
<path d="M24.0005 8.00146L22.0005 8.00049C21.448 8.00022 21 8.44801 21 9.00049V23.9985C21 24.5506 21.4474 24.9983 21.9995 24.9985L23.9995 24.9995C24.552 24.9998 25 24.552 25 23.9995V9.00146C25 8.44937 24.5526 8.00173 24.0005 8.00146Z" stroke="#051B46" stroke-linejoin="round"/>
</g>
<defs>
<clipPath id="clip0_5334_6458">
<rect width="28" height="28" fill="white"/>
</clipPath>
</defs>
</svg>
