<svg width="460" height="46" viewBox="0 0 460 46" fill="none" xmlns="http://www.w3.org/2000/svg">
<g clip-path="url(#clip0_1006_12531)" filter="url(#filter0_d_1006_12531)">
<rect width="467" height="52" transform="translate(0 -3)" fill="url(#paint0_linear_1006_12531)"/>
<g opacity="0.6" filter="url(#filter1_f_1006_12531)">
<path d="M277.17 72.0142C277.17 101.041 239.56 124.571 193.167 124.571C146.773 124.571 39.9851 81.4606 39.9851 52.4342C57.2798 45.2205 64.2661 43.7692 85.6786 38.6165C118.724 38.0864 154.603 20.5479 194.134 19.002C238.194 17.9418 267.002 50.2792 304.347 62.2242C312.927 70.476 283.623 66.6922 277.17 72.0142Z" fill="#1859B4"/>
</g>
<path d="M-14.5696 97.584C39.9155 38.1431 96.0128 47.7879 124.924 33.5777C157.72 17.4587 178.808 16.0939 195.585 21.4537C198.157 22.2757 200.628 23.2571 203.025 24.3655M445.786 122.299C370.895 37.8327 332.376 73.5673 291.809 69.4752C280.736 68.3584 271.338 65.787 263.059 62.3635M263.059 62.3635C257.811 62.1934 244.621 63.2251 233.842 68.7071M263.059 62.3635C260.529 61.3162 258.101 60.1899 255.764 59M255.764 59C239.012 57.5393 223.658 65.0273 197.497 69.474M255.764 59C253.262 57.7263 250.861 56.3818 248.542 54.9858M248.542 54.9858C234.959 53.8403 213.979 62.3635 191.544 66.4232M248.542 54.9858C246.836 53.9601 245.175 52.9057 243.551 51.832M172.498 68.7071C217.779 60.2091 229.116 50.3713 243.55 51.832C241.639 50.5702 239.779 49.2809 237.959 47.9796M170.54 67.9067C205.527 59.3787 214.652 47.9796 237.96 47.9796C237.268 47.4847 236.581 46.9898 235.901 46.4914M235.901 46.4914C202.921 44.6269 201.507 57.6448 162.593 67.9055M235.901 46.4914C234.681 45.6011 233.477 44.7071 232.283 43.8144M232.283 43.8144C197.497 39.5846 187.704 60.5038 149.198 69.474M232.283 43.8144C230.872 42.7588 229.479 41.7043 228.093 40.6582M228.093 40.6582C170.539 40.6582 188.707 51.832 149.198 62.3635C125.394 68.7071 110.18 54.3196 71.1369 67.9067M228.093 40.6582C226.352 39.3425 224.627 38.0412 222.904 36.7663M60.7519 69.474C85.1649 50.1568 126.245 67.9067 153.821 53.4964C191.665 33.7215 209.333 36.3085 222.905 36.7663C221.672 35.8544 220.44 34.9557 219.203 34.075M219.203 34.075C219.203 34.075 180.916 26.8183 139.353 51.0627C115.906 64.7409 78.8904 50.1149 54.4849 68.7071M219.203 34.075C217.502 32.8647 215.795 31.6905 214.068 30.5665M214.068 30.5665C214.068 30.5665 179.916 20.6844 135.773 46.4914C113.097 59.7489 68.2511 50.1149 44.9401 68.7071M214.068 30.5665C212.546 29.5755 211.007 28.6241 209.447 27.7194M209.447 27.7194C209.447 27.7194 180.83 19.6923 149.198 36.3888C100.925 61.8674 72.2329 45.2931 32.0554 70.4841M209.447 27.7194C207.355 26.508 205.221 25.3816 203.025 24.3655M203.025 24.3655C203.025 24.3655 172.498 15.194 137.164 37.635C112.791 53.113 64.6465 45.3938 31.3099 68.7071M195.585 21.4549C153.82 15.9034 135.773 38.8297 68.2511 50.1161C46.2831 56.389 33.8318 60.378 25.9984 69.4752" stroke="white" stroke-opacity="0.16"/>
<path d="M-14.5696 92.0257C59.2358 22.7955 85.372 45.8427 124.924 27.9812C222.718 -16.1827 216.239 58.6156 291.299 66.1933C331.865 70.289 373.855 39.6738 445.786 116.756" stroke="white" stroke-opacity="0.16"/>
<path d="M-12.8586 87.0871C60.7794 18.2216 87.2459 41.7019 126.318 23.3799C222.219 -21.5902 218.883 54.732 293.773 62.2698C334.247 66.3428 376.174 37.4142 450.894 121.488" stroke="white" stroke-opacity="0.16"/>
<path d="M-12.8586 83.1434C69.2769 15.2169 87.7418 37.3105 126.814 18.9922C222.714 -25.9689 220.113 50.5968 295.002 58.1318C335.477 62.204 376.174 33.4792 450.894 117.536" stroke="white" stroke-opacity="0.16"/>
<path d="M-12.8586 79.3862C73.2112 12.0695 86.1508 33.4505 125.831 14.8509C221.731 -30.1012 222.08 46.2501 296.969 53.7848C337.444 57.8574 376.175 29.7333 450.895 113.774" stroke="white" stroke-opacity="0.16"/>
<path d="M-13.0383 73.4385C59.7351 16.0368 86.4434 29.6696 126.116 11.0717C219.656 -32.7747 222.846 42.0709 297.726 49.6049C338.196 53.6759 376.184 26.5487 450.895 110.581" stroke="white" stroke-opacity="0.16"/>
<path d="M-14.9836 68.3915C55.7003 15.2648 86.3946 25.0233 125.821 6.45168C218.776 -37.3356 221.947 37.4091 296.36 44.9317C336.577 48.9984 384.395 24.8614 458.641 108.78" stroke="white" stroke-opacity="0.16"/>
<path d="M-14.9836 61.5315C50.7058 11.8448 80.7402 26.9469 124.886 3.93536C215.325 -43.2058 221.947 32.9775 296.36 40.5012C336.577 44.5684 384.395 20.4281 458.641 104.358" stroke="white" stroke-opacity="0.16"/>
<path d="M-14.9836 56.3305C50.7058 6.63657 80.7402 21.7409 124.886 -1.27402C215.325 -48.422 222.813 30.1433 297.226 37.6692C337.443 41.737 381.898 17.7921 458.641 99.1629" stroke="white" stroke-opacity="0.16"/>
<path d="M-10.9368 51.5758C54.1819 0.673835 72.9426 21.8965 122.512 -4.80535C208.731 -51.2503 218.606 31.0008 292.372 38.7098C324.323 42.0495 333.191 17.3505 364.166 38.7098C395.142 60.069 476.995 61.6133 476.995 61.6133" stroke="white" stroke-opacity="0.16"/>
<path d="M-10.9368 47.3575C54.1819 -3.53503 73.7915 17.3488 123.362 -9.34871C209.582 -55.7862 219.674 27.8969 293.441 35.6033C325.392 38.9425 333.669 12.4157 367.3 35.6033C400.932 58.7909 476.995 57.3921 476.995 57.3921" stroke="white" stroke-opacity="0.16"/>
<path d="M-10.9368 44.1654C54.2459 -7.03269 73.8748 13.9773 123.494 -12.8811C209.798 -59.5963 220.346 24.5761 294.185 32.3286C326.168 35.6878 332.937 14.9747 360.725 28.388C388.514 41.8012 437.394 51.2468 475.335 47.3393" stroke="white" stroke-opacity="0.16"/>
<path d="M-7.75708 35.0915C57.5022 -16.1877 68.9263 12.3876 118.604 -14.5128C205.01 -61.3031 222.313 21.1762 296.239 28.9424C328.259 32.3069 332.42 13.9789 360.241 27.4137C388.063 40.8486 438.561 47.8197 476.546 43.9059" stroke="white" stroke-opacity="0.16"/>
<path d="M-6.11646 30.7461C59.1429 -20.5251 70.5669 8.04507 120.245 -18.8505C206.65 -65.6323 222.403 17.9182 296.327 25.683C328.347 29.0457 333.849 12.2506 361.671 25.683C389.492 39.1154 440.2 43.4708 478.187 39.5577" stroke="white" stroke-opacity="0.16"/>
<path d="M-6.11646 27.2817C59.1429 -24.0185 67.3358 -0.249313 120.245 -22.3429C225.491 -66.2929 223.309 12.0563 297.234 19.8257C329.254 23.1904 335.967 10.725 363.787 24.1653C391.609 37.6056 440.2 40.0151 478.187 36.0997" stroke="white" stroke-opacity="0.16"/>
<path d="M-6.11646 17.4167C59.1429 -33.7532 67.8967 -9.11543 120.245 -32.0819C228.262 -79.4714 220.764 6.10887 294.813 12.9583C322.342 15.5051 337.139 2.62406 368.627 17.7969C400.115 32.9697 440.199 30.1176 478.186 26.2122" stroke="white" stroke-opacity="0.16"/>
<path d="M-6.11646 9.73869C59.1429 -41.6304 65.0283 -22.3081 120.245 -39.9526C240.665 -78.4336 220.764 -1.6132 294.813 5.26293C322.342 7.81962 337.139 -5.11159 368.627 10.1203C400.115 25.3521 440.199 22.4889 478.186 18.5683" stroke="white" stroke-opacity="0.16"/>
<path d="M-6.11646 3.33243C59.1429 -48.0367 65.0283 -28.7131 120.245 -46.3589C240.665 -84.8398 220.764 -8.01946 294.813 -1.14333C322.342 1.41337 337.139 -11.5178 368.627 3.71403C400.115 18.9459 440.199 16.0827 478.186 12.1621" stroke="white" stroke-opacity="0.16"/>
<path d="M-6.11646 -3.17538C59.1429 -54.5445 65.0283 -35.2209 120.245 -52.8667C240.665 -91.3476 220.764 -14.5273 294.813 -7.65114C322.342 -5.09444 337.139 -18.0269 368.627 -2.79378C400.115 12.4381 440.199 9.57489 478.186 5.65429" stroke="white" stroke-opacity="0.16"/>
<path d="M-3.94458 -10.2379C61.3147 -61.607 67.2001 -42.2834 122.416 -59.9292C242.837 -98.4101 222.935 -21.5898 296.986 -14.7136C324.515 -12.1569 339.31 -25.0881 370.8 -9.85628C402.29 5.37559 442.373 2.51239 480.36 -1.40821" stroke="white" stroke-opacity="0.16"/>
</g>
<defs>
<filter id="filter0_d_1006_12531" x="-16" y="-11" width="499" height="84" filterUnits="userSpaceOnUse" color-interpolation-filters="sRGB">
<feFlood flood-opacity="0" result="BackgroundImageFix"/>
<feColorMatrix in="SourceAlpha" type="matrix" values="0 0 0 0 0 0 0 0 0 0 0 0 0 0 0 0 0 0 127 0" result="hardAlpha"/>
<feOffset dy="8"/>
<feGaussianBlur stdDeviation="8"/>
<feComposite in2="hardAlpha" operator="out"/>
<feColorMatrix type="matrix" values="0 0 0 0 0.12549 0 0 0 0 0.4 0 0 0 0 0.745098 0 0 0 0.3 0"/>
<feBlend mode="normal" in2="BackgroundImageFix" result="effect1_dropShadow_1006_12531"/>
<feBlend mode="normal" in="SourceGraphic" in2="effect1_dropShadow_1006_12531" result="shape"/>
</filter>
<filter id="filter1_f_1006_12531" x="39.8851" y="18.8766" width="266.122" height="105.795" filterUnits="userSpaceOnUse" color-interpolation-filters="sRGB">
<feFlood flood-opacity="0" result="BackgroundImageFix"/>
<feBlend mode="normal" in="SourceGraphic" in2="BackgroundImageFix" result="shape"/>
<feGaussianBlur stdDeviation="0.05" result="effect1_foregroundBlur_1006_12531"/>
</filter>
<linearGradient id="paint0_linear_1006_12531" x1="20.2367" y1="-0.000356221" x2="324.477" y2="228.02" gradientUnits="userSpaceOnUse">
<stop stop-color="#378FDB"/>
<stop offset="1" stop-color="#1F62C0"/>
</linearGradient>
<clipPath id="clip0_1006_12531">
<rect width="467" height="52" fill="white" transform="translate(0 -3)"/>
</clipPath>
</defs>
</svg>
